<?xml version="1.0" encoding="UTF-8" standalone="no"?>
<!-- Generator: Adobe Illustrator 27.5.0, SVG Export Plug-In . SVG Version: 6.00 Build 0)  -->

<svg
   version="1.1"
   id="Layer_1"
   x="0px"
   y="0px"
   viewBox="0 0 7169986.5 3634570.8"
   xml:space="preserve"
   width="7169986.5"
   height="3634570.8"
   xmlns="http://www.w3.org/2000/svg"
   xmlns:svg="http://www.w3.org/2000/svg"><defs
   id="defs176" />

<g
   id="g177"
   transform="translate(-133695.14,-256110.1)"><g
     id="g176">
	<path
   style="opacity:0.1;fill:#9bc1f9"
   d="M 280.763,1870.96 H 2558.23 c 188.772,-157.47 91.627,-631.313 -66.047,-727.37 -169.725,-103.397 99.784,-460.991 -161.667,-577.058 -170.706,-75.783 -442.207,6.816 -405.688,-195.94 C 1975.468,89.432 1383.557,17.396 947.481,93.184 476.03,175.121 906.56,577.975 388.102,659.14 c -266.595,41.736 -215.079,398.816 -190.221,472.607 21.651,64.268 164.888,166.208 -34.18,306.59 -291.906,205.848 110.181,428.834 117.062,432.623 z"
   id="path1" />
	<g
   id="g36">
		<g
   id="g9">
			<path
   style="fill:#256653"
   d="m 2303.744,668.277 c 0,0 -37.283,81.166 -62.373,115.452 -25.089,34.286 -48.986,67.072 -69.006,162.232 -20.02,95.16 -16.586,104.724 -22.063,129.303 -5.479,24.579 -41.136,124.159 -41.342,142.421 -0.206,18.26 -72.061,122.21 -90.466,170.863 -18.405,48.652 -51.01,118.15 -49.177,153.535 l 8.189,-2.079 c 0,0 6.676,-82.505 63.478,-165.884 56.801,-83.379 48.678,-99.122 113.183,-141.956 64.506,-42.834 106.167,-161.157 106.167,-161.157 0,0 65.617,-128.52 62.564,-195.331 -3.053,-66.811 14.366,-127.067 -19.154,-207.399 z"
   id="path2" />
			<path
   style="fill:#256653"
   d="m 2216.434,543.442 c 0,0 -2.17,53.316 -19.369,84.99 -17.198,31.673 -32.013,50.91 -35.135,85.178 -3.123,34.268 -13.924,122.614 -61.88,165.745 -47.956,43.13 -54.082,172.365 -90.585,211.458 -36.505,39.094 -41.272,67.192 -34.534,134.243 6.738,67.052 29.643,159.972 -23.313,281.261 l -11.969,-30.167 c 0,0 37.885,-99.783 28.714,-158.209 -9.171,-58.426 -41.085,-146.708 -29.404,-189.05 11.681,-42.342 -31.754,-50.611 -5.599,-114.651 26.154,-64.039 15.412,-86.289 51.017,-141.66 0,0 3.651,-2.592 13.014,-49.439 9.362,-46.847 84.829,-132.711 119.606,-162.013 34.777,-29.3 84.898,-76.259 99.437,-117.686 z"
   id="path3" />
			<path
   style="fill:#3c8f7c"
   d="m 2074.778,807.425 c 0,0 -41.647,71.304 -42.24,117.198 -0.593,45.894 4.379,83.224 -16.691,146.07 -21.07,62.848 20.753,102.576 8.698,137.275 -12.055,34.698 -12.986,75.781 -12.62,106.935 0.367,31.153 -47.704,134.257 -55.021,186.461 -7.317,52.204 2.033,52.378 2.033,52.378 0,0 7.969,-68.924 19.03,-91.715 11.062,-22.79 44.693,-101.364 52.55,-131.765 7.855,-30.4 29.153,-49.912 47.524,-101.397 18.372,-51.484 44.487,-94.847 42.493,-167.901 -1.992,-73.056 27.407,-150.164 -45.756,-253.539 z"
   id="path4" />
			<path
   style="fill:#3c8f7c"
   d="m 1986.606,1505.902 c 0,0 19.423,-90.492 101.317,-99.529 81.896,-9.037 130.003,7.155 187.857,-58.957 57.854,-66.112 91.459,-171.028 109.94,-189.091 0,0 -29.067,-14.953 -77.396,30.229 -48.329,45.181 -82.272,79.452 -110.251,105.759 -27.979,26.307 -50.699,9.154 -80.236,26.497 -24.755,14.535 -56.768,56.539 -70.866,78.542 -4.579,7.147 -10.01,13.705 -16.247,19.462 -5.675,5.236 -12.433,11.653 -16.768,16.379 -8.67,9.449 -33.682,71.033 -33.682,71.033 z"
   id="path5" />
			<path
   style="fill:#3c8f7c"
   d="m 1957.743,1489.936 c 0,0 28.863,-110.667 9.53,-164.823 -19.332,-54.157 -79.854,-94.232 -77.422,-128.251 2.433,-34.02 41.288,-125.967 9.607,-194.424 0,0 -12.035,61.063 -23.909,74.646 -11.875,13.582 -93.373,68.36 -78.925,140.702 14.448,72.343 93.675,89.255 113.188,110.552 19.512,21.297 45.854,21.271 46.02,35.432 0.167,14.16 5.306,65.651 -3.443,116.457 z"
   id="path6" />
			<path
   style="fill:#327f6b"
   d="m 1989.302,1415.875 40.546,-116.799 c 0,0 23.819,-93.943 37.626,-172.283 13.807,-78.34 7.305,-319.368 7.305,-319.368 0,0 -41.647,71.304 -42.24,117.198 -0.593,45.894 4.379,83.225 -16.691,146.07 -21.07,62.848 20.753,102.576 8.698,137.275 -12.055,34.698 -12.987,75.781 -12.62,106.935 0.367,31.154 -47.705,134.257 -55.021,186.461 -4.008,28.598 -3.013,41.564 -1.295,47.459 -6.504,-45.66 33.692,-132.948 33.692,-132.948 z"
   id="path7" />
			<path
   style="fill:#327f6b"
   d="m 2189.024,1346.298 c -36.171,7.225 -68.513,4.759 -111.452,36.72 -42.938,31.96 -68.192,66.092 -68.192,66.092 0,0 -19.303,34.495 -27.281,52.68 -1.15,2.779 -1.823,4.437 -1.823,4.437 l 6.331,-0.323 c 0,0 19.423,-90.492 101.317,-99.529 81.896,-9.037 130.003,7.155 187.857,-58.957 57.854,-66.112 91.459,-171.028 109.94,-189.091 0,0 -61.536,47.871 -99.56,90.24 -38.022,42.367 -60.965,90.507 -97.137,97.731 z"
   id="path8" />
			<path
   style="fill:#327f6b"
   d="m 1875.55,1077.084 c -11.875,13.582 -93.373,68.36 -78.925,140.703 14.448,72.342 93.675,89.254 113.188,110.551 19.512,21.297 45.854,21.271 46.02,35.432 0.167,14.16 5.306,65.651 -3.443,116.456 l 2.339,4.241 c 4.274,-19.829 10.207,-50.023 12.146,-72.954 3.149,-37.237 -2.887,-52.65 -14.854,-82.817 -11.969,-30.167 -86.338,-91.606 -104.975,-123.909 -18.635,-32.303 35.935,-86.3 48.046,-112.37 12.112,-26.069 4.368,-89.979 4.368,-89.979 0,0 -12.036,61.062 -23.91,74.646 z"
   id="path9" />
		</g>
		<g
   id="g35">
			<path
   style="fill:#50bfa5"
   d="m 2068.877,1436.47 12.731,-30.767 c 9.878,-22.629 35.154,-33.435 56.456,-24.136 v 0 c 53.681,23.434 77.019,88.657 52.126,145.681 l -18.199,41.69 c -7.973,18.265 -5.196,38.357 5.555,52.524 9.764,12.866 11.358,30.757 4.589,46.267 l -9.595,21.979 c -10.388,23.796 -30.598,41.419 -54.569,48.688 -14.02,4.25 -26.4,14.771 -32.947,29.771 l -13.586,31.12 c -15.019,34.406 -53.45,50.836 -85.838,36.698 l -18.479,-8.066 c -32.389,-14.139 -46.47,-53.492 -31.45,-87.897 v 0 c 24.287,-41.139 22.351,-71.844 13.744,-92.669 -12.654,-30.621 -12.508,-65.854 1.182,-97.213 l 1.92,-4.398 c 14.449,-33.1 42.35,-57.813 75.577,-68.395 14.668,-4.671 29.958,-16.079 40.783,-40.877 z"
   id="path10" />
			<path
   style="fill:#96d9c9"
   d="m 1839.656,1870.96 c 26.051,-33.775 168.9,-214.724 262.045,-244.877 102.814,-33.284 5.912,98.913 5.912,98.913 0,0 182.391,-199.439 249.322,-181.46 61.354,16.481 0,140.103 0,140.103 0,0 69.102,-68.454 152.902,-68.454 81.557,0 -56.979,242.78 -64.453,255.775 z"
   id="path11" />
			<g
   id="g26">
				<g
   id="g12">
					<path
   style="fill:#3c8f7c"
   d="m 2389.32,1479.524 c -74.52,116.385 -128.907,245.673 -160.004,383.024 l -5.108,-1.369 c 30.966,-134.476 84.989,-263.537 159.386,-379.795 17.29,-27.02 35.961,-59.072 68.334,-69.612 0.625,-0.204 0.861,0.745 0.266,0.97 -29.57,11.142 -46.697,41.517 -62.874,66.782 z"
   id="path12" />
				</g>
				<g
   id="g13">
					<path
   style="fill:#3c8f7c"
   d="m 2247.282,1867.365 c 83.273,-113.24 184.513,-217.906 304.892,-308.924 1.201,-0.908 2.824,1.187 1.614,2.116 -114.171,87.761 -215.18,191.395 -300.175,308.506 z"
   id="path13" />
				</g>
				<path
   style="fill:#3c8f7c"
   d="m 2396.131,1407.348 c 1.918,2.82 9.262,10.179 11.419,19.846 2.897,9.171 0.609,20.65 0.364,20.249 -0.554,0.228 8.496,-7.424 11.324,-19.595 3.66,-11.674 1.098,-27.865 -3.455,-33.23 -7.863,-12.127 -21.602,-13.356 -24.27,-7.476 -2.831,5.84 0.76,13.788 4.618,20.206 z"
   id="path14" />
				<path
   style="fill:#3c8f7c"
   d="m 2413.959,1511.233 c -2.783,-1.974 -9.995,-9.46 -19.618,-11.809 -9.111,-3.077 -20.635,-1.017 -20.237,-0.763 -0.238,0.549 7.59,-8.349 19.814,-10.936 11.743,-3.43 27.881,-0.549 33.155,4.109 11.97,8.101 12.928,21.861 6.996,24.412 -5.895,2.718 -13.77,-1.029 -20.11,-5.013 z"
   id="path15" />
				<path
   style="fill:#3c8f7c"
   d="m 2387.055,1556.765 c -2.783,-1.974 -9.994,-9.46 -19.617,-11.808 -9.112,-3.078 -20.635,-1.018 -20.237,-0.764 -0.239,0.549 7.589,-8.349 19.813,-10.936 11.743,-3.43 27.882,-0.549 33.156,4.109 11.969,8.101 12.928,21.861 6.995,24.412 -5.895,2.717 -13.77,-1.03 -20.11,-5.013 z"
   id="path16" />
				<path
   style="fill:#3c8f7c"
   d="m 2483.02,1662.375 c -2.783,-1.975 -9.994,-9.461 -19.617,-11.809 -9.112,-3.078 -20.635,-1.017 -20.237,-0.763 -0.239,0.548 7.59,-8.35 19.813,-10.937 11.743,-3.43 27.882,-0.549 33.156,4.109 11.97,8.102 12.928,21.861 6.995,24.413 -5.896,2.717 -13.771,-1.031 -20.11,-5.013 z"
   id="path17" />
				<path
   style="fill:#3c8f7c"
   d="m 2532.048,1619.182 c -2.782,-1.974 -9.995,-9.461 -19.617,-11.809 -9.112,-3.078 -20.635,-1.017 -20.237,-0.763 -0.239,0.549 7.59,-8.349 19.813,-10.937 11.743,-3.429 27.882,-0.548 33.156,4.109 11.97,8.102 12.927,21.861 6.995,24.413 -5.894,2.717 -13.769,-1.03 -20.11,-5.013 z"
   id="path18" />
				<path
   style="fill:#3c8f7c"
   d="m 2358.486,1458.868 c 2.34,2.482 10.751,8.591 14.405,17.798 4.308,8.599 3.858,20.296 3.552,19.938 -0.51,0.313 7.221,-8.671 8.094,-21.135 1.774,-12.104 -3.309,-27.69 -8.65,-32.271 -9.678,-10.735 -23.438,-9.783 -25.146,-3.556 -1.875,6.214 2.925,13.497 7.745,19.226 z"
   id="path19" />
				<path
   style="fill:#3c8f7c"
   d="m 2318.925,1510.504 c 3.329,1.766 14.961,4.968 20.812,13.672 6.621,7.746 7.462,20.994 7.021,20.726 -0.622,0.568 8.292,-12.78 7.906,-27.067 0.824,-14.271 -7.651,-29.481 -15.123,-32.297 -13.832,-7.822 -31.527,-0.846 -32.98,6.839 -1.672,7.74 5.426,13.805 12.364,18.127 z"
   id="path20" />
				<path
   style="fill:#3c8f7c"
   d="m 2277.285,1588.711 c 3.58,1.181 15.584,2.381 22.814,9.978 7.83,6.522 10.888,19.44 10.408,19.249 -0.519,0.665 6.023,-13.992 3.241,-28.011 -1.588,-14.207 -12.5,-27.774 -20.339,-29.294 -14.951,-5.385 -31.222,4.469 -31.361,12.288 -0.345,7.912 7.672,12.696 15.237,15.79 z"
   id="path21" />
				<path
   style="fill:#3c8f7c"
   d="m 2400.499,1643.188 c 2.607,1.627 11.887,4.894 16.15,12.307 4.944,6.678 4.875,17.502 4.532,17.259 -0.539,0.427 7.472,-9.924 7.972,-21.566 1.482,-11.563 -4.545,-24.418 -10.463,-27.133 -10.806,-7.151 -25.598,-2.483 -27.217,3.685 -1.8,6.201 3.629,11.538 9.026,15.448 z"
   id="path22" />
				<path
   style="fill:#3c8f7c"
   d="m 2464.646,1425.658 c -1.56,-1.289 -5.498,-6.034 -11.088,-7.844 -5.256,-2.22 -12.162,-1.504 -11.938,-1.337 -0.165,0.314 4.854,-4.606 12.2,-5.603 7.097,-1.515 16.517,0.896 19.434,3.882 6.727,5.316 6.69,13.498 3.069,14.748 -3.606,1.35 -8.1,-1.212 -11.677,-3.846 z"
   id="path23" />
				<path
   style="fill:#3c8f7c"
   d="m 2449.706,1392.424 c 0.069,2.022 1.423,8.038 -0.557,13.57 -1.45,5.518 -6.233,10.551 -6.229,10.271 -0.35,-0.061 6.612,-1.033 11.885,-6.242 5.532,-4.696 9.375,-13.629 8.79,-17.762 -0.104,-8.572 -6.605,-13.54 -9.806,-11.435 -3.27,2.033 -3.985,7.157 -4.083,11.598 z"
   id="path24" />
				<path
   style="fill:#3c8f7c"
   d="m 2567.355,1575.185 c -1.56,-1.289 -5.498,-6.034 -11.088,-7.844 -5.256,-2.22 -12.162,-1.505 -11.938,-1.337 -0.165,0.314 4.855,-4.606 12.2,-5.603 7.097,-1.515 16.518,0.896 19.434,3.882 6.726,5.316 6.69,13.498 3.07,14.748 -3.607,1.349 -8.101,-1.213 -11.678,-3.846 z"
   id="path25" />
				<path
   style="fill:#3c8f7c"
   d="m 2549.332,1541.664 c 0.234,2.01 2.076,7.895 0.557,13.57 -0.994,5.618 -5.348,11.026 -5.367,10.747 -0.354,-0.031 6.506,-1.571 11.334,-7.194 5.129,-5.134 8.227,-14.352 7.306,-18.422 -0.806,-8.535 -7.692,-12.953 -10.71,-10.594 -3.093,2.294 -3.387,7.459 -3.12,11.893 z"
   id="path26" />
			</g>
			<g
   id="g34">
				<g
   id="g27">
					<path
   style="fill:#3c8f7c"
   d="m 2536.789,1758.275 c -76.093,8.341 -146.963,41.93 -215.186,74.684 -46.006,22.088 -43.686,28.38 -53.058,31.669 -1.519,0.532 -3.036,-1.116 -2.298,-2.579 3.606,-7.141 13.058,-11.971 19.634,-16.078 7.655,-4.78 15.653,-9.006 23.769,-12.946 17.365,-8.431 35.183,-16.018 52.884,-23.708 36.011,-15.646 72.604,-30.363 110.647,-40.325 20.855,-5.461 42.078,-9.399 63.557,-11.335 0.401,-0.037 0.448,0.574 0.051,0.618 z"
   id="path27" />
				</g>
				<path
   style="fill:#3c8f7c"
   d="m 2468.207,1734.685 c 0.496,3.121 3.748,12.186 1.742,21.14 -1.189,8.83 -7.637,17.549 -7.684,17.115 -0.555,-0.027 10.05,-2.87 17.222,-11.956 7.674,-8.34 11.914,-22.922 10.215,-29.215 -1.806,-13.267 -12.837,-19.718 -17.393,-15.841 -4.677,3.778 -4.803,11.856 -4.102,18.757 z"
   id="path28" />
				<path
   style="fill:#3c8f7c"
   d="m 2401.172,1758.687 c 0.495,3.122 3.747,12.186 1.741,21.14 -1.189,8.83 -7.636,17.55 -7.684,17.115 -0.554,-0.027 10.051,-2.87 17.223,-11.955 7.673,-8.341 11.914,-22.923 10.214,-29.216 -1.806,-13.267 -12.836,-19.717 -17.393,-15.841 -4.677,3.778 -4.802,11.856 -4.101,18.757 z"
   id="path29" />
				<path
   style="fill:#3c8f7c"
   d="m 2333.058,1789.048 c 0.495,3.121 3.747,12.186 1.741,21.14 -1.189,8.83 -7.637,17.549 -7.684,17.115 -0.555,-0.027 10.051,-2.87 17.223,-11.956 7.673,-8.34 11.914,-22.922 10.215,-29.216 -1.807,-13.266 -12.838,-19.717 -17.394,-15.84 -4.678,3.777 -4.803,11.855 -4.101,18.757 z"
   id="path30" />
				<path
   style="fill:#3c8f7c"
   d="m 2488.22,1797.316 c -1.377,-2.576 -4.04,-11.071 -10.515,-16.55 -5.805,-5.843 -15.422,-8.671 -15.215,-8.324 -0.393,0.329 9.009,-3.494 19.364,-0.802 10.31,1.863 21.573,10.243 23.833,15.829 6.072,10.784 1.544,21.694 -3.977,21.38 -5.555,-0.173 -10.155,-6.056 -13.49,-11.533 z"
   id="path31" />
				<path
   style="fill:#3c8f7c"
   d="m 2418.492,1821.997 c -1.377,-2.576 -4.04,-11.071 -10.516,-16.55 -5.805,-5.844 -15.422,-8.671 -15.214,-8.324 -0.394,0.329 9.008,-3.494 19.364,-0.802 10.309,1.863 21.572,10.242 23.832,15.828 6.073,10.785 1.545,21.694 -3.977,21.381 -5.553,-0.174 -10.155,-6.056 -13.489,-11.533 z"
   id="path32" />
				<path
   style="fill:#3c8f7c"
   d="m 2541.323,1771.91 c -1.205,-1.436 -3.999,-6.418 -8.789,-9.003 -4.417,-2.902 -10.829,-3.407 -10.653,-3.217 -0.203,0.259 5.195,-3.384 12.054,-3.062 6.72,-0.192 14.899,3.582 17.056,6.791 5.238,5.97 3.836,13.418 0.328,13.95 -3.512,0.626 -7.178,-2.46 -9.996,-5.459 z"
   id="path33" />
				<path
   style="fill:#3c8f7c"
   d="m 2533.276,1739.129 c -0.276,1.854 -0.05,7.562 -2.78,12.271 -2.245,4.784 -7.445,8.569 -7.396,8.315 -0.309,-0.113 6.198,0.166 11.874,-3.697 5.827,-3.353 10.823,-10.848 10.982,-14.711 1.341,-7.828 -3.751,-13.442 -7.02,-12.061 -3.318,1.305 -4.828,5.853 -5.66,9.883 z"
   id="path34" />
			</g>
		</g>
	</g>
	<g
   id="g44">
		<g
   id="g37">
			<path
   style="fill:#3c8f7c"
   d="M 573.497,1293.04 C 484.084,1213.314 438.109,1098.816 415.286,1016.803 390.509,927.769 386.9,856.712 386.866,856.005 l -4.86,-0.3 c 0.034,0.713 3.659,72.293 28.586,161.922 23.035,82.824 69.494,198.496 160.015,279.209 z"
   id="path36" />
		</g>
		<g
   id="g38">
			<path
   style="fill:#3c8f7c"
   d="m 397.05,835.392 c 4.407,20.5 0.718,39.865 -8.678,53.848 -14.733,-10.845 -26.319,-28.224 -30.726,-48.724 -4.406,-20.5 -0.718,-39.865 8.679,-53.848 14.733,10.845 26.319,28.224 30.725,48.724 z"
   id="path37" />
		</g>
		<g
   id="g39">
			<path
   style="fill:#3c8f7c"
   d="m 369.626,893.768 c 15.405,14.333 24.41,33.159 26.155,51.287 -16.912,0.77 -35.517,-6.093 -50.922,-20.426 -15.405,-14.333 -24.41,-33.159 -26.155,-51.286 16.911,-0.771 35.517,6.092 50.922,20.425 z"
   id="path38" />
		</g>
		<g
   id="g40">
			<path
   style="fill:#3c8f7c"
   d="m 362.398,955.101 c 19.145,6.006 34.845,19.339 44.137,35.534 -13.894,8.921 -32.506,11.488 -51.651,5.482 -19.145,-6.006 -34.845,-19.339 -44.137,-35.534 13.894,-8.921 32.506,-11.489 51.651,-5.482 z"
   id="path39" />
		</g>
		<g
   id="g41">
			<path
   style="fill:#3c8f7c"
   d="m 391.882,1028.883 c 15.165,4.783 27.289,17.017 34.157,32.467 -11.497,9.658 -26.552,13.319 -41.717,8.536 -15.165,-4.782 -27.29,-17.016 -34.158,-32.466 11.497,-9.658 26.553,-13.319 41.718,-8.537 z"
   id="path40" />
		</g>
		<g
   id="g42">
			<path
   style="fill:#3c8f7c"
   d="m 417.776,923.579 c 11.935,-12.015 27.741,-17.136 43.042,-15.494 0.847,16.194 -4.737,32.606 -16.671,44.62 -11.934,12.015 -27.741,17.136 -43.042,15.494 -0.848,-16.193 4.736,-32.606 16.671,-44.62 z"
   id="path41" />
		</g>
		<g
   id="g43">
			<path
   style="fill:#3c8f7c"
   d="m 431.609,976.456 c 11.935,-12.015 27.741,-17.136 43.042,-15.494 0.847,16.193 -4.737,32.605 -16.671,44.62 -11.934,12.015 -27.741,17.136 -43.042,15.493 -0.847,-16.193 4.737,-32.605 16.671,-44.619 z"
   id="path42" />
		</g>
	</g>
	<g
   id="g52">
		<g
   id="g45">
			<path
   style="fill:#50bfa5"
   d="m 519.611,1401.164 c -82.568,-12.035 -153.229,-60.952 -197.967,-99.869 -48.567,-42.248 -77.931,-82.169 -78.222,-82.567 l -2.941,1.69 c 0.293,0.401 29.867,40.62 78.751,83.156 45.172,39.308 116.564,88.721 200.156,100.904 z"
   id="path44" />
		</g>
		<g
   id="g46">
			<path
   style="fill:#50bfa5"
   d="m 241.433,1202.838 c 10.428,10.227 15.714,22.898 15.618,34.633 -12.726,-0.651 -26.129,-6.308 -36.558,-16.534 -10.427,-10.226 -15.714,-22.898 -15.618,-34.632 12.727,0.65 26.13,6.306 36.558,16.533 z"
   id="path45" />
		</g>
		<g
   id="g47">
			<path
   style="fill:#50bfa5"
   d="m 247.891,1247.296 c 14.455,2.42 26.913,9.908 34.884,19.776 -9.535,6.937 -22.984,10.087 -37.439,7.666 -14.455,-2.421 -26.913,-9.909 -34.884,-19.776 9.535,-6.937 22.984,-10.087 37.439,-7.666 z"
   id="path46" />
		</g>
		<g
   id="g48">
			<path
   style="fill:#50bfa5"
   d="m 267.224,1285.722 c 13.434,-3.854 27.676,-2.129 39.292,3.72 -4.653,10.518 -14.488,19.152 -27.921,23.007 -13.433,3.855 -27.676,2.129 -39.292,-3.72 4.653,-10.518 14.487,-19.153 27.921,-23.007 z"
   id="path47" />
		</g>
		<g
   id="g49">
			<path
   style="fill:#50bfa5"
   d="m 312.675,1317.299 c 10.651,-3.039 22.393,-0.58 32.314,5.766 -2.978,10.025 -10.324,17.931 -20.975,20.97 -10.65,3.039 -22.393,0.58 -32.314,-5.766 2.978,-10.027 10.324,-17.932 20.975,-20.97 z"
   id="path48" />
		</g>
		<g
   id="g50">
			<path
   style="fill:#50bfa5"
   d="m 287.32,1246.148 c 2.327,-11.563 9.55,-20.605 19.075,-25.522 6.707,9.089 9.758,20.771 7.431,32.335 -2.327,11.563 -9.55,20.606 -19.075,25.522 -6.707,-9.087 -9.759,-20.771 -7.431,-32.335 z"
   id="path49" />
		</g>
		<g
   id="g51">
			<path
   style="fill:#50bfa5"
   d="m 315.651,1271.577 c 2.328,-11.563 9.55,-20.605 19.075,-25.522 6.706,9.088 9.758,20.771 7.431,32.335 -2.327,11.563 -9.551,20.606 -19.075,25.522 -6.706,-9.088 -9.758,-20.77 -7.431,-32.335 z"
   id="path50" />
		</g>
	</g>
	<g
   id="g61">
		<g
   id="g53">
			<path
   style="fill:#96d9c9"
   d="m 569.329,1648.289 c -95.245,36.157 -200.089,17.059 -271.272,-5.33 -77.275,-24.305 -132.683,-57.63 -133.235,-57.964 l -2.111,4.034 c 0.554,0.336 56.367,33.916 134.153,58.396 71.88,22.622 177.804,41.904 274.229,5.299 z"
   id="path52" />
		</g>
		<g
   id="g54">
			<path
   style="fill:#96d9c9"
   d="m 153.102,1565.652 c 17.29,6.715 30.58,19.822 37.567,35.088 -13.952,7.133 -31.65,8.204 -48.94,1.489 -17.289,-6.716 -30.58,-19.823 -37.567,-35.089 13.951,-7.131 31.65,-8.203 48.94,-1.488 z"
   id="path53" />
		</g>
		<g
   id="g55">
			<path
   style="fill:#96d9c9"
   d="m 186.847,1619.213 c 16.863,-5.923 34.662,-4.028 49.117,3.763 -5.968,14.966 -18.394,27.477 -35.257,33.399 -16.863,5.924 -34.662,4.029 -49.117,-3.762 5.968,-14.965 18.394,-27.476 35.257,-33.4 z"
   id="path54" />
		</g>
		<g
   id="g56">
			<path
   style="fill:#96d9c9"
   d="m 230.665,1656.889 c 11.983,-13.414 28.201,-20.104 44.112,-19.807 1.397,16.545 -3.863,33.897 -15.847,47.313 -11.983,13.415 -28.201,20.105 -44.111,19.807 -1.398,-16.545 3.863,-33.898 15.846,-47.313 z"
   id="path55" />
		</g>
		<g
   id="g57">
			<path
   style="fill:#96d9c9"
   d="m 291.973,1676.343 c 11.983,-13.415 28.201,-20.105 44.112,-19.807 1.397,16.545 -3.863,33.897 -15.847,47.313 -11.984,13.416 -28.201,20.105 -44.112,19.807 -1.398,-16.546 3.863,-33.898 15.847,-47.313 z"
   id="path56" />
		</g>
		<g
   id="g58">
			<path
   style="fill:#96d9c9"
   d="m 234.289,1613.492 c -10.545,-13.732 -15.246,-30.277 -14.128,-45.289 13.889,1.619 28.088,9.686 38.634,23.417 10.546,13.732 15.246,30.278 14.129,45.29 -13.89,-1.619 -28.09,-9.685 -38.635,-23.418 z"
   id="path57" />
		</g>
		<g
   id="g59">
			<path
   style="fill:#96d9c9"
   d="m 297.979,1633.425 c -10.743,-13.571 -15.7,-30.065 -14.827,-45.125 13.884,1.377 28.184,9.209 38.927,22.78 10.744,13.572 15.7,30.065 14.827,45.125 -13.884,-1.377 -28.183,-9.208 -38.927,-22.78 z"
   id="path58" />
		</g>
		<g
   id="g60">
			<path
   style="fill:#96d9c9"
   d="m 372.545,1681.67 c 2.817,-7.15 8.412,-12.116 14.969,-14.168 3.146,6.609 3.693,14.46 0.876,21.611 -2.817,7.15 -8.413,12.116 -14.97,14.167 -3.145,-6.608 -3.692,-14.46 -0.875,-21.61 z"
   id="path59" />
		</g>
	</g>
	<path
   style="fill:#3c8f7c"
   d="m 773.749,1863.979 c 0,0 121.351,-479.934 81.11,-528.158 -55.613,-66.646 -101.487,154.443 -105.989,135.664 -42.509,-177.343 -53.833,-404.252 -190.965,-428.268 -77.955,-13.652 18.006,168.734 12.232,218.063 -5.773,49.328 -146.254,-114.447 -231.621,-200.25 -85.367,-85.803 -129.455,-31.479 -75.517,76.414 52.157,104.33 220.888,218.338 186.108,231.865 -34.78,13.527 -245.932,-121.204 -271.79,-63.61 -31.704,70.617 285.034,166.724 255.208,182.587 -29.826,15.863 -181.208,-36.383 -177.072,17.619 4.135,54.001 207.635,51.99 204.157,75.742 -5.631,38.462 -140.226,-48.594 -146.142,4.624 -6.051,54.433 177.071,44.502 173.899,86.956 -1.823,24.398 -41.116,-12.402 -46.905,21.391 -13.201,77.056 228.199,170.925 228.199,170.925 z"
   id="path61" />
	<g
   id="g63">
		<path
   style="fill:#50bfa5"
   d="m 866.279,1866.914 c 0,0 -115.488,-177.07 -171.062,-210.505 -59.215,-35.624 -14.134,71.028 -14.134,71.028 0,0 -121.006,-143.99 -154.644,-114.734 -33.638,29.256 -3.107,63.136 -3.107,63.136 0,0 -108.635,-32.191 -128.161,7.684 -30.004,61.273 148.851,112.083 148.851,112.083 0,0 -76.779,-0.812 -62.653,40.556 21.302,62.385 384.91,30.752 384.91,30.752 z"
   id="path62" />
		<path
   style="fill:#96d9c9"
   d="m 395.17,1683.522 c 19.526,-39.875 128.161,-7.684 128.161,-7.684 0,0 -30.531,-33.88 3.107,-63.136 33.638,-29.256 130.437,58.317 130.437,58.317 0,0 -10.146,-72.218 62.746,-8.6 52.064,45.44 146.657,204.493 146.657,204.493 z"
   id="path63" />
	</g>
	<g
   id="g74">
		<g
   id="g73">
			<g
   id="g64">
				<path
   style="fill:#96d9c9"
   d="m 726.092,1422.321 5.183,-3.54 c -94.028,-142.406 -122.73,-311.474 -130.252,-428.229 -8.161,-126.704 6.165,-220.877 6.311,-221.813 l -6.422,-1.866 c -0.147,0.943 -14.581,95.746 -6.39,223.205 7.568,117.747 36.538,288.318 131.57,432.243 z"
   id="path64" />
			</g>
			<g
   id="g65">
				<path
   style="fill:#96d9c9"
   d="m 625.844,746.555 c 0.205,28.608 -9.719,52.259 -25.563,66.447 -16.091,-20.457 -26.383,-48.079 -26.589,-76.685 -0.205,-28.607 9.72,-52.259 25.563,-66.447 16.092,20.458 26.384,48.079 26.589,76.685 z"
   id="path65" />
			</g>
			<g
   id="g66">
				<path
   style="fill:#96d9c9"
   d="m 574.913,810.856 c 16.027,25.292 22.605,53.69 20.015,78.063 -22.001,-6.258 -44.147,-23.189 -60.174,-48.48 -16.027,-25.292 -22.606,-53.69 -20.015,-78.063 22.001,6.257 44.147,23.189 60.174,48.48 z"
   id="path66" />
			</g>
			<g
   id="g67">
				<path
   style="fill:#96d9c9"
   d="m 549.222,887.678 c 23.069,16.047 39.743,40.162 47.395,65.256 -20.288,5.661 -44.961,1.016 -68.031,-15.031 -23.069,-16.046 -39.744,-40.162 -47.395,-65.256 20.287,-5.66 44.961,-1.015 68.031,15.031 z"
   id="path67" />
			</g>
			<g
   id="g68">
				<path
   style="fill:#96d9c9"
   d="m 579.308,1021.798 c 10.061,6.003 17.705,15.63 21.629,25.976 -8.26,3.075 -18.648,1.943 -28.709,-4.06 -10.061,-6.003 -17.705,-15.63 -21.629,-25.976 8.26,-3.075 18.648,-1.943 28.709,4.06 z"
   id="path68" />
			</g>
			<g
   id="g69">
				<path
   style="fill:#96d9c9"
   d="m 587.486,1071.482 c 10.061,6.003 17.705,15.63 21.629,25.976 -8.26,3.075 -18.648,1.943 -28.709,-4.06 -10.061,-6.003 -17.705,-15.63 -21.629,-25.976 8.26,-3.074 18.648,-1.943 28.709,4.06 z"
   id="path69" />
			</g>
			<g
   id="g70">
				<path
   style="fill:#96d9c9"
   d="m 629.008,870.375 c 18.589,-10.533 40.328,-10.421 59.609,-1.712 -3.232,21.467 -14.81,40.457 -33.399,50.991 -18.589,10.533 -40.328,10.421 -59.609,1.712 3.231,-21.467 14.81,-40.458 33.399,-50.991 z"
   id="path70" />
			</g>
			<g
   id="g71">
				<path
   style="fill:#96d9c9"
   d="m 632.719,945.221 c 18.588,-10.533 40.327,-10.421 59.608,-1.712 -3.232,21.466 -14.81,40.457 -33.399,50.99 -18.589,10.533 -40.328,10.422 -59.609,1.712 3.232,-21.466 14.811,-40.457 33.4,-50.99 z"
   id="path71" />
			</g>
			<g
   id="g72">
				<path
   style="fill:#96d9c9"
   d="m 629.032,1052.342 c 12.099,-6.855 26.248,-6.783 38.798,-1.114 -2.104,13.972 -9.64,26.333 -21.739,33.188 -12.099,6.856 -26.248,6.783 -38.798,1.114 2.103,-13.971 9.64,-26.332 21.739,-33.188 z"
   id="path72" />
			</g>
		</g>
	</g>
	<g
   id="g76">
		<path
   style="fill:#f8a492"
   d="m 1955.846,1474.635 c 10.926,1.771 10.28,3.555 11.686,3.743 1.662,0.224 21.383,-9.681 21.383,-9.681 0,0 58.325,-28.787 61.418,-30.457 l 42.1,-52.966 32.444,14.964 c 0,0 -47.347,56.312 -50.342,58.793 -2.996,2.48 -86.626,31.807 -93.897,34.635 0,0 -7.332,6.702 -12.077,10.751 -4.745,4.048 -11.09,5.652 -12.604,6.574 -0.224,0.137 -5.457,2.899 -12.852,4.508 -6.373,1.387 -1.063,-2.942 -1.063,-2.942 0,0 11.274,-4.76 10.72,-5.62 -0.427,-0.663 -6.421,2.313 -13.454,3.923 -1.808,0.414 -3.595,0.816 -5.238,1.171 -4.316,0.934 -6.213,-1.536 -1.876,-3.257 1.532,-0.607 4.103,-1.552 6.038,-1.955 2.091,-0.437 3.849,-1.534 5.541,-2.179 3.36,-1.278 5.828,-2.167 5.695,-2.282 -0.173,-0.15 0.301,-0.893 -1.635,-0.516 -2.326,0.454 -7.019,2.548 -10.501,2.942 -1.974,0.223 -6.063,0.948 -6.063,0.948 0,0 -7.235,0.692 -7.285,-0.322 -0.108,-2.216 4.347,-3.455 7.083,-3.398 1.725,-0.879 6.052,-1.516 6.052,-1.516 0,0 8.393,-3.313 7.905,-4.555 -0.194,-0.496 -5.275,0.267 -10.667,0.636 -5.699,0.391 -9.827,0.389 -10.132,-0.714 -0.481,-1.752 4.054,-2.415 4.054,-2.415 0,0 4,-0.583 5.31,-0.882 1.536,-0.35 6.042,-1.762 6.042,-1.762 0,0 15.436,-5.67 14.878,-6.809 -0.557,-1.14 -3.106,-3.524 -4.195,-3.518 -1.088,0.01 -3.034,1.092 -4.123,1.098 -1.088,0.01 -3.43,-0.203 -3.593,-1.573 -0.163,-1.369 5.881,-4.206 5.881,-4.206 0,0 4.213,-1.672 7.367,-1.161 z"
   id="path74" />
		<path
   style="fill:#355389"
   d="m 2063.135,1418.079 c 0,0 10.503,9.542 14.872,12.683 3.631,2.611 21.329,11.135 21.329,11.135 0,0 17.606,-26.961 25.306,-40.48 9.34,-16.403 15.808,-40.796 13.6,-41.457 -6.196,-1.856 -14.722,-2.991 -22.594,0.622 -27.243,12.503 -52.513,57.497 -52.513,57.497 z"
   id="path75" />
		<path
   style="fill:#fe875e"
   d="m 1966.049,1488.725 c -4.675,0.737 -9.454,-0.15 -11.524,-4.43 -0.467,5.075 7.224,7.593 11.524,4.43 z"
   id="path76" />
	</g>
	<path
   style="fill:#13375b"
   d="m 660.617,1299.601 c 0.649,-15.701 -1.654,-31.206 -8.648,-45.824 -6.019,-12.576 -20.909,-19.713 -34.489,-19.73 -43.121,-0.057 -48.604,57.161 -76.053,79.231 -8.387,6.744 -17.762,12.236 -25.698,19.51 -29.306,26.854 -16.106,76.565 10.804,100.108 18.673,16.338 48.022,25.621 71.036,12.849 12.014,-6.666 21.134,-17.749 27.631,-29.891 9.222,-17.233 15.166,-37.116 21.725,-55.482 6.98,-19.55 12.829,-39.901 13.692,-60.771 z"
   id="path77" />
	<path
   style="fill:#f7cc7f"
   d="m 667.66,1375.632 c -13.469,-40.857 -31.25,-40.221 -31.25,-40.221 l 14.367,87.001 c 8.317,-2.273 19.147,-7.336 27.455,-9.683 -2.754,-12.916 -7.255,-27.035 -10.572,-37.097 z"
   id="path78" />
	<path
   style="fill:#f48c7f"
   d="m 735.728,1514.979 -49.241,-37.563 c 0,0 -4.953,-35.042 -11.586,-66.141 -8.308,2.347 -15.807,8.863 -24.125,11.137 l 12.521,69.64 64.538,33.295 18.229,23.428 4.146,-24.05 z"
   id="path79" />
	<path
   style="fill:#f47458"
   d="m 1184.577,1456.31 c 15.291,0 29.637,4.028 42.042,11.078 1.568,0.891 3.269,1.705 5.081,2.449 37.838,15.54 79.242,-13.24 79.242,-54.146 v -201.174 h -201.174 c -40.905,0 -69.686,-41.404 -54.146,-79.242 0.744,-1.813 1.559,-3.514 2.45,-5.081 7.05,-12.405 11.078,-26.751 11.078,-42.042 0,-48.452 -40.399,-87.468 -89.351,-85.201 -44.297,2.051 -79.97,38.438 -81.207,82.766 -0.44,15.767 3.405,30.597 10.452,43.419 0.877,1.597 1.683,3.327 2.421,5.169 15.415,38.457 -13.826,80.213 -55.257,80.213 H 656.765 v 458.389 c 0,108.131 87.657,195.787 195.788,195.787 h 458.389 V 1668.19 c 0,-41.106 -41.536,-70.065 -79.612,-54.577 -1.82,0.74 -3.528,1.549 -5.103,2.433 -13.564,7.614 -29.419,11.625 -46.279,10.734 -43.433,-2.297 -78.518,-37.595 -80.568,-81.041 -2.313,-48.987 36.719,-89.429 85.197,-89.429 z"
   id="path80" />
	<path
   style="fill:#f7cc7f"
   d="m 1620.588,1344.719 c 0.715,-15.274 5.408,-29.417 13.029,-41.479 0.964,-1.524 1.856,-3.186 2.685,-4.96 17.29,-37.071 -9.525,-79.773 -50.386,-81.684 l -200.955,-9.395 -9.395,200.954 c -1.91,40.861 -44.613,67.677 -81.685,50.387 -1.775,-0.828 -3.436,-1.721 -4.96,-2.685 -12.063,-7.621 -26.204,-12.314 -41.478,-13.028 -48.4,-2.263 -89.26,36.271 -89.282,85.274 -0.02,44.345 34.663,81.678 78.884,84.983 15.729,1.176 30.722,-1.973 43.859,-8.413 1.636,-0.802 3.402,-1.525 5.276,-2.177 39.135,-13.603 79.479,17.556 77.545,58.942 l -9.313,199.225 457.889,21.405 c 108.014,5.05 199.668,-78.418 204.717,-186.431 l 21.406,-457.89 -200.286,-9.362 c -41.062,-1.92 -71.929,38.218 -58.235,76.977 0.654,1.853 1.383,3.597 2.192,5.211 6.972,13.904 10.238,29.93 8.561,46.729 -4.322,43.278 -41.22,76.677 -84.714,76.696 -49.042,0.023 -87.618,-40.854 -85.354,-89.279 z"
   id="path81" />
	<path
   style="fill:#50bfa5"
   d="m 1060.641,1028.309 c 0.768,15.271 -2.534,29.801 -8.953,42.545 -0.811,1.61 -1.539,3.351 -2.191,5.197 -13.62,38.57 17.203,78.477 58.057,76.422 l 200.921,-10.103 -10.103,-200.92 c -2.054,-40.854 37.852,-71.677 76.423,-58.057 1.847,0.652 3.587,1.38 5.197,2.191 12.743,6.418 27.273,9.72 42.545,8.952 48.391,-2.433 85.329,-44.741 80.606,-93.517 -4.272,-44.138 -42.406,-77.938 -86.739,-76.948 -15.769,0.352 -30.387,4.937 -42.839,12.619 -1.551,0.957 -3.239,1.848 -5.041,2.677 -37.634,17.328 -80.806,-9.779 -82.886,-51.159 l -10.016,-199.19 -457.812,23.021 c -107.994,5.43 -191.138,97.379 -185.708,205.373 l 23.02,457.811 200.251,-10.069 c 41.055,-2.064 67.892,-45.002 50.51,-82.253 -0.831,-1.78 -1.724,-3.445 -2.686,-4.974 -8.285,-13.164 -13.088,-28.798 -13.044,-45.682 0.112,-43.494 33.603,-80.307 76.891,-84.537 48.81,-4.769 91.162,32.183 93.597,80.601 z"
   id="path82" />
	<path
   style="fill:#184655"
   d="m 1471.876,917.42 c -15.291,0 -29.637,-4.028 -42.042,-11.078 -1.567,-0.891 -3.269,-1.706 -5.08,-2.449 -37.839,-15.54 -79.242,13.24 -79.242,54.145 v 201.175 h 201.174 c 40.905,0 69.686,41.403 54.146,79.242 -0.744,1.812 -1.559,3.513 -2.45,5.08 -7.05,12.405 -11.077,26.751 -11.077,42.042 0,48.452 40.398,87.469 89.351,85.202 44.297,-2.052 79.97,-38.439 81.207,-82.767 0.439,-15.767 -3.405,-30.596 -10.452,-43.418 -0.877,-1.597 -1.683,-3.327 -2.421,-5.169 -15.415,-38.457 13.825,-80.213 55.257,-80.213 h 199.442 V 700.824 c 0,-108.13 -87.657,-195.788 -195.788,-195.788 H 1345.512 V 705.54 c 0,41.106 41.535,70.066 79.612,54.577 1.819,-0.74 3.528,-1.549 5.103,-2.433 13.563,-7.614 29.419,-11.626 46.279,-10.734 43.434,2.297 78.518,37.594 80.568,81.04 2.313,48.988 -36.72,89.43 -85.198,89.43 z"
   id="path83" />
	<path
   style="fill:#f7a491"
   d="m 525.825,1805.088 c 0,0 -3.038,21.121 -8.265,27.936 -1.754,2.287 -4.958,5.181 -7.062,9.315 -3.274,6.435 -1.464,16.016 0.951,21.293 1.24,2.708 -0.087,2.7 2.736,3.573 8.36,2.584 17.253,-1.769 20.812,-9.793 1.988,-4.482 3.732,-10.462 4.084,-17.997 0.892,-19.176 6.843,-28.926 6.843,-28.926 z"
   id="path84" />
	<path
   style="fill:#f7a491"
   d="m 617.261,1814.748 c 0,0 1.875,23.815 0.354,31.555 -0.815,4.145 -5.355,12.676 -3.273,16.575 2.082,3.9 4.463,4.876 4.463,4.876 l 53.974,0.871 c 2.94,0.048 0.997,-1.849 -1.373,-3.596 -3.88,-2.859 -7.011,-4.75 -19.406,-10.759 -0.808,-0.392 -3.751,-2.269 -4.813,-2.918 -2.691,-1.646 -5.393,-4.239 -7.721,-6.835 -3.875,-4.325 -4.214,-25.297 -4.214,-25.297 z"
   id="path85" />
	<path
   style="fill:#355389"
   d="m 659.446,1498.187 c 0,0 6.797,38.667 2.334,64.017 -4.463,25.35 -25.882,260.322 -25.882,260.322 l -23.803,1.346 c 0,0 -4.989,-98.153 -4.097,-111.803 0.892,-13.65 7.956,-36.493 7.956,-36.493 l -2.369,-79.247 30.037,-104.109 z"
   id="path86" />
	<path
   style="fill:#466eb6"
   d="m 589.488,1490.054 c 0,0 -18.743,28.274 -23.205,51.675 -4.462,23.399 3.275,95.313 -5.309,125.977 -4.648,16.599 -22.26,42.232 -24.937,63.683 -2.678,21.45 -13.181,77.636 -13.181,77.636 l 23.792,4.727 55.294,-140.321 43.372,-126.829 11.111,-65.32 z"
   id="path87" />
	<path
   style="fill:#f7cc7f"
   d="m 604.661,1329.181 c 0,0 -24.815,-1.584 -34.633,9.141 -9.817,10.725 21.778,95.565 23.563,109.215 1.785,13.649 -9.1,49.943 -9.1,49.943 0,0 58.294,11.757 74.955,0.707 0,0 1.785,-98.154 0,-107.904 -1.785,-9.751 -16.661,-49.402 -20.231,-53.302 -3.57,-3.901 -34.554,-7.8 -34.554,-7.8 z"
   id="path88" />
	<path
   style="fill:#f7a491"
   d="m 612.922,1295.946 c 0,0 -0.128,0.732 -0.359,1.979 -1.107,5.979 -5.367,25.816 -8.246,31.27 -3.479,6.591 11.908,27.609 26.718,25.044 4.409,-0.764 -3.726,-19.313 -3.335,-21.277 0.748,-3.761 1.763,-8.893 2.801,-14.153 0.586,-2.968 1.179,-5.978 1.737,-8.805 1.583,-8.038 2.876,-14.611 2.876,-14.611 z"
   id="path89" />
	<path
   style="fill:#f47458"
   d="m 612.563,1297.925 c 0.23,-1.246 0.359,-1.979 0.359,-1.979 l 22.192,-0.555 c 0,0 -1.292,6.573 -2.876,14.611 -0.555,2.812 -1.144,5.804 -1.727,8.756 -3.426,-0.506 -7.006,-2.175 -10.596,-5.325 -3.913,-3.433 -6.478,-7.559 -8.026,-11.964 0.274,-1.405 0.502,-2.616 0.674,-3.544 z"
   id="path90" />
	<path
   style="fill:#f7a491"
   d="m 627.858,1245.389 c 0,0 -10.46,-1.212 -17.017,7.288 -6.556,8.499 -13.623,34.783 2.664,49.073 16.288,14.29 32.381,-1.886 34.767,-19.036 2.387,-17.151 3.314,-37.944 -20.414,-37.325 z"
   id="path91" />
	<path
   style="fill:#f7a491"
   d="m 653.091,1282.461 c -1.944,3.787 -5.207,5.885 -7.289,4.685 -2.081,-1.2 -2.193,-5.245 -0.248,-9.032 1.944,-3.788 5.207,-5.886 7.289,-4.686 2.08,1.201 2.192,5.245 0.248,9.033 z"
   id="path92" />
	<path
   style="fill:#13375b"
   d="m 629.028,1242.578 c 0,0 -13.975,24.995 -23.971,26.15 -9.997,1.154 -11.31,14.436 -11.31,14.436 0,0 3.574,-30.604 13.471,-36.505 9.897,-5.901 21.81,-4.081 21.81,-4.081 z"
   id="path93" />
	<path
   style="fill:#f47458"
   d="m 536.619,1853.191 c -12.966,2.369 -21.594,-5.232 -26.084,-10.924 -3.296,6.447 -4.904,16.067 -2.479,21.364 2.135,4.665 8.374,4.53 13.288,4.714 5.194,0.193 9.213,-2.699 11.791,-7.232 1.202,-2.117 2.444,-4.754 3.484,-7.922 z"
   id="path94" />
	<path
   style="fill:#f47458"
   d="m 647.178,1851.349 c -14.274,3.671 -24.826,1.175 -30.728,-1.21 -1.522,4.323 -3.54,9.748 -2.47,12.876 1.31,3.83 3.176,4.695 4.824,4.739 13.038,0.343 47.759,0.81 57.701,0.939 1.388,0.019 2.154,-1.607 1.262,-2.676 -2.466,-2.951 -29.525,-14.017 -30.589,-14.668 z"
   id="path95" />
	<path
   style="fill:#f7a491"
   d="m 607.679,1275.009 c 0.813,4.438 -0.822,8.509 -3.653,9.092 -2.83,0.583 -5.783,-2.543 -6.596,-6.982 -0.813,-4.438 0.822,-8.509 3.652,-9.092 2.83,-0.583 5.783,2.543 6.597,6.982 z"
   id="path96" />
	<path
   style="fill:#ffffff"
   d="m 624.004,1290.381 12.617,0.57 c 0,0 -0.507,4.779 -6.063,4.688 -6.775,-0.11 -6.554,-5.258 -6.554,-5.258 z"
   id="path97" />
	<g
   id="g117">
		<path
   style="fill:#dd513a"
   d="m 1699.964,284.255 c 1.571,0.065 5.877,1.506 12.173,13.405 8.041,15.195 19.793,61.099 19.793,61.099 l -35.078,13.063 -4.507,-9.581 -7.422,-73.762 c 0,0 14.606,-4.242 15.041,-4.224 z"
   id="path98" />
		<path
   style="fill:#f47458"
   d="m 1653.595,277.639 c 10.03,0.013 34.85,2.94 46.369,6.62 0,0 8.462,72.733 -7.619,128.001 -3.6,12.372 2.978,51.285 2.978,51.285 l -103.939,-1.371 c 0,0 12.313,-94.075 7.675,-109.271 -4.639,-15.195 -4.749,-68.154 -4.749,-68.154 0,0 0.711,-0.111 23.352,-4.024 10.559,-1.827 25.224,-3.1 35.933,-3.086 z"
   id="path99" />
		<path
   style="fill:#f7a491"
   d="m 1641.483,598.54 c 0,0 2.3,26.54 6.527,33.889 4.228,7.349 -0.223,19.843 -0.445,21.558 -0.222,1.715 -8.9,4.165 -22.696,2.695 -13.796,-1.47 -13.574,-4.654 -12.461,-9.799 1.112,-5.145 8.455,-11.759 8.9,-16.659 0.445,-4.899 -4.228,-22.538 -4.228,-22.538 z"
   id="path100" />
		<path
   style="fill:#e0973f"
   d="m 1683.595,441.639 c 0,0 71.75,-3.984 87.771,5.719 16.022,9.704 -11.383,57.326 -11.383,57.326 0,0 -49.926,-2.301 -147.717,3.343 -23.157,1.337 -25.153,-60.38 -20.822,-65.487 4.33,-5.107 92.151,-0.901 92.151,-0.901 z"
   id="path101" />
		<path
   style="fill:#dd513a"
   d="m 1623.148,658.743 c -14.206,-1.514 -12.449,-8.493 -11.304,-13.791 0.717,-3.317 4.792,-7.227 7.222,-10.926 1.27,1.011 3.336,2.797 9.505,4.62 6.406,1.892 15.188,-1.853 20.784,-4.199 1.995,7.423 2.086,16.89 1.899,18.325 -0.228,1.766 -13.9,7.484 -28.106,5.971 z"
   id="path102" />
		<path
   style="fill:#f7cc7f"
   d="m 1630.99,492.969 c 2.866,21.692 17.06,129.677 17.06,129.677 l -32.933,4.083 c 0,0 -40.498,-140.946 -38.422,-162.504 2.077,-21.559 17.236,-23.372 17.236,-23.372 0,0 29.471,-5.305 37.059,52.116 z"
   id="path103" />
		<path
   style="fill:#f7a491"
   d="m 1593.177,292.832 c 9.718,-3.645 14.473,83.918 15.782,119.958 17.21,1.656 47.206,0.013 54.676,-0.548 3.513,-0.264 11.612,-3.23 15.105,-3.688 3.58,-0.469 6.825,-0.713 8.585,-0.407 0.646,0.112 18.584,7.448 20.119,9.057 1.903,1.995 7.048,7.027 6.18,9.204 -0.868,2.176 -9.895,-6.064 -9.895,-6.064 l -4.412,-2.475 c 5.492,5.365 15.967,12.43 14.458,15.003 -1.472,2.509 -10.92,-4.661 -17.654,-9.548 5.776,5.217 12.951,14.553 11.299,16.008 -1.486,1.308 -9.648,-9.5 -18.372,-12.613 -3.232,-1.153 -6.455,2.04 -8.997,2.427 -1.869,0.284 -4.755,0.887 -6.588,0.367 l -9.445,-2.679 c -3.217,0.292 -3.298,2.195 -6.547,2.886 -3.772,0.803 -9.961,1.648 -14.765,2.822 -27.661,6.758 -36.888,9.897 -45.356,9.892 -25.653,-0.014 -27.141,-140.986 -4.173,-149.602 z"
   id="path104" />
		<path
   style="fill:#dd513a"
   d="m 1574.734,375.039 c -1.821,-36.917 -1.555,-82.42 19.141,-90.183 8.165,-3.063 22.561,15.355 19.972,90.933 -11.048,0.912 -27.268,1.646 -39.113,-0.75 z"
   id="path105" />
		<path
   style="fill:#f7a491"
   d="m 1737.785,621.241 c 0,0 -2.874,9.213 2.271,15.306 5.146,6.093 26.526,12.07 29.332,15.371 2.807,3.3 2.595,6.11 2.595,6.11 l -60.009,-1.652 0.653,-18.123 2.764,-13.023 z"
   id="path106" />
		<path
   style="fill:#dd513a"
   d="m 1743.789,639.585 c 0,0 -15.419,6.237 -22.867,2.544 -7.448,-3.693 -7.224,-4.716 -9.379,-3.339 -2.155,1.377 -2.927,18.366 -2.927,18.366 l 67.479,1.983 c 4.695,-0.108 7.069,-3.566 3.255,-6.526 -2.616,-2.03 -5.64,-3.389 -7.357,-4.375 -5.279,-3.026 -28.204,-8.653 -28.204,-8.653 z"
   id="path107" />
		<path
   style="fill:#f7cc7f"
   d="m 1735.511,458.646 c 4.638,-9.761 15.187,-22.469 33.746,-14.815 17.702,7.3 22.453,25.241 16.868,43.612 -5.585,18.372 -42.354,126.368 -43.635,141.217 l -29.357,0.195 c 0,0 5.335,-85.514 6.644,-106.184 1.259,-19.888 7.706,-47.132 15.734,-64.025 z"
   id="path108" />
		<path
   d="m 1783.169,359.177 h -98.135 c -2.597,0 -4.935,1.574 -5.92,3.985 l -30.217,73.948 h -54.103 c -1.513,0 -2.739,1.229 -2.739,2.746 v 0 c 0,1.517 1.227,2.747 2.739,2.747 h 153.98 c 4.232,0 8.072,-2.493 9.806,-6.368 l 30.426,-68.007 c 1.901,-4.25 -1.196,-9.051 -5.837,-9.051 z"
   id="path109" />
		<path
   style="fill:#ffffff"
   d="m 1730.333,402.237 c -0.662,3.322 -3.55,5.543 -6.449,4.961 -2.898,-0.582 -4.711,-3.746 -4.049,-7.067 0.663,-3.321 3.551,-5.542 6.45,-4.961 2.899,0.581 4.711,3.745 4.048,7.067 z"
   id="path110" />
		<g
   id="g116">
			<path
   style="fill:#0e2e35"
   d="m 1676.916,188.805 c -2.957,-0.996 -5.869,-2.12 -8.681,-3.476 -3.179,-1.533 -7.297,-3.328 -9.899,-3.73 -5.477,-0.845 -14.885,-0.282 -20.081,5.355 -6.473,7.022 -17.975,1.268 -15.657,38.045 2.622,41.628 25.769,37.059 26.33,36.354 0.561,-0.705 20.643,-26.631 20.643,-26.631 0,0 7.021,15.359 7.021,14.795 0,-0.544 35.852,-48.747 0.324,-60.712 z"
   id="path111" />
			<path
   style="fill:#f7a491"
   d="m 1659.345,264.427 1.998,14.874 c 0,0 4.477,21.43 -1.282,25.561 -5.758,4.131 -24.488,-26.172 -24.488,-26.172 l 1.979,-37.69 z"
   id="path112" />
			<path
   style="fill:#f47458"
   d="m 1636.911,253.215 c 4.757,12.855 16.086,20.757 24.128,23.823 L 1659.345,264.427 1637.551,241 Z"
   id="path113" />
			<path
   style="fill:#f7a491"
   d="m 1658.162,199.985 c 12.202,-1.97 23.146,7.844 22.842,20.059 -0.133,5.31 -0.568,11.939 -1.671,19.078 -2.653,17.17 -14.368,32.29 -22.114,30.94 -7.746,-1.35 -27.236,-16.162 -23.805,-40.596 2.119,-15.086 11.943,-27.413 24.748,-29.481 z"
   id="path114" />
			<path
   style="fill:#f7a491"
   d="m 1638.789,232.382 c -0.653,3.776 -3.678,6.402 -6.755,5.866 -3.077,-0.536 -5.042,-4.032 -4.388,-7.808 0.653,-3.775 3.678,-6.401 6.755,-5.865 3.078,0.535 5.042,4.031 4.388,7.807 z"
   id="path115" />
			<path
   style="fill:#0e2e35"
   d="m 1634.401,224.574 c 0,0 9.365,2.327 12.841,-3.697 3.476,-6.024 15.904,-19.022 31.702,-13.633 15.799,5.39 -13.902,-13.104 -15.166,-13.104 -1.265,0 -16.431,-0.105 -16.431,-0.105 0,0 -11.69,9.617 -12.112,10.674 -0.421,1.057 -3.791,12.576 -3.791,12.576 z"
   id="path116" />
		</g>
		<path
   style="fill:#ffffff"
   d="m 1651.536,249.706 17.041,3.258 c 0,0 -1.626,6.419 -9.161,5.204 -9.188,-1.482 -7.88,-8.462 -7.88,-8.462 z"
   id="path117" />
	</g>
	<g
   id="g137">
		<path
   style="fill:#f8a492"
   d="m 1363.265,1436.184 c 0.651,2.245 1.027,2.99 1.855,4.498 5.344,9.727 17.743,23.606 17.743,23.606 l 9.592,-21.609 c 0,0 -1.564,-6.785 -4.275,-16.484 -9.264,2.417 -18.087,3.818 -24.915,9.989 z"
   id="path118" />
		<path
   style="fill:#13375b"
   d="m 1418.256,1417.439 c 0,0 -53.496,23.037 -55.226,22.597 -1.114,-0.283 -21.943,-35.147 -22.166,-67.935 -0.103,-15.143 15.623,-33.357 33.169,-29.756 8.833,1.814 8.697,4.271 21.766,23.262 13.069,18.991 22.457,51.832 22.457,51.832 z"
   id="path119" />
		<path
   style="fill:#f7a491"
   d="m 1463.922,1830.469 c 0,0 -1.27,21.011 -1.276,21.054 -0.467,2.667 -2.304,9.258 -2.304,11.683 0,9.11 43.258,-7.733 33.563,-11.771 -0.878,-0.365 -5.476,-3.129 -5.764,-6.229 -0.444,-4.777 -1.572,-14.441 -1.572,-14.441 z"
   id="path120" />
		<path
   style="fill:#dd513a"
   d="m 1493.798,1851.349 c 0,0 -10.156,2.786 -15.358,3.483 -5.201,0.696 -12.059,-5.17 -15.738,-3.585 -4.049,1.744 -3.891,17.442 -3.891,17.442 0,0 54.463,4.469 69.777,-0.154 6.067,-1.831 -14.027,-10.696 -34.79,-17.186 z"
   id="path121" />
		<path
   style="fill:#f7a491"
   d="m 1375.431,1830.469 c 0,0 -1.269,21.011 -1.276,21.054 -0.467,2.667 -2.304,9.258 -2.304,11.683 0,9.11 43.258,-7.733 33.563,-11.771 -0.878,-0.365 -6.838,-5.192 -7.127,-8.292 -0.444,-4.777 -0.209,-12.379 -0.209,-12.379 z"
   id="path122" />
		<path
   style="fill:#dd513a"
   d="m 1405.307,1851.349 c 0,0 -10.156,2.786 -15.357,3.483 -5.202,0.696 -12.06,-5.17 -15.739,-3.585 -4.049,1.744 -4.211,17.442 -4.211,17.442 0,0 54.71,5.21 70.099,-0.154 5.972,-2.082 -14.03,-10.696 -34.792,-17.186 z"
   id="path123" />
		<g
   id="g125">
			<path
   style="fill:#f7a491"
   d="m 1388.651,1447.825 38.1,-53.372 c 0.159,-0.468 0.506,-1.423 1.035,-2.884 1.919,-5.296 5.911,-16.315 9.39,-27.279 l 0.037,-0.117 c 1.093,-3.831 3.409,-10.516 5.649,-16.983 2.491,-7.19 5.581,-16.107 5.689,-17.629 -0.096,-0.26 -0.275,-0.727 -0.515,-1.346 -1.396,-3.627 -3.285,-12.263 -3.953,-16.018 -0.425,-2.391 -0.85,-8.203 1.992,-8.203 4.469,0 2.34,5.805 4.4,9.43 0.758,-2.423 2.288,-7.229 3.097,-12.095 l 0.747,-11.347 c 0.144,-0.855 -0.767,-7.115 2.368,-7.115 l 0.149,0.01 c 2.815,0.206 2.753,6.861 3.923,18.117 0.37,-1.295 0.741,-2.857 1.021,-4.293 -0.033,-0.77 0.531,-4.153 0.953,-5.94 -0.566,-3.136 -0.237,-8.083 3.104,-7.616 1.674,0.234 1.535,7.138 1.535,7.138 -0.018,0.947 -0.116,8.247 -0.064,9.689 0.344,-2.449 1.682,-12.896 4.303,-12.896 2.173,0 2.348,2.812 2.302,5.036 -0.026,1.316 -1.392,12.634 -1.468,13.95 1.023,-1.718 2.236,-11.691 3.25,-11.691 4.238,0 2.706,14.181 1.149,17.876 -0.146,0.378 -0.302,1.12 -0.481,1.979 -0.529,2.526 -1.416,6.755 -3.634,10.551 -2.661,4.552 -6.331,11.788 -6.891,12.897 -0.41,2.261 -1.685,10.39 -3.289,20.616 -0.686,4.376 -1.438,9.174 -2.222,14.144 l -0.042,-0.01 c -0.144,1.076 -0.938,4.496 -3.951,17.326 -4.124,17.558 -4.553,18.316 -4.735,18.641 -1.79,3.17 -42.869,58.955 -44.616,61.327 l -1.031,1.401 z"
   id="path124" />
			<path
   style="fill:#f47458"
   d="m 1459.515,1323.347 c 0,0 -3.092,-7.908 -8.598,-7.923 0,0 3.076,-1.109 5.714,0.979 2.638,2.088 2.884,6.944 2.884,6.944 z"
   id="path125" />
		</g>
		<g
   id="g130">
			<path
   style="fill:#f7a491"
   d="m 1379.446,1308.067 -4.904,31.017 c 0,0 18.688,15.006 29.582,11.841 9.14,-2.656 2.872,-14.605 2.872,-14.605 0,0 -4.87,-16.559 -3.376,-25.238 1.494,-8.68 -24.174,-3.015 -24.174,-3.015 z"
   id="path126" />
			<path
   style="fill:#fe875e"
   d="m 1382.968,1317.444 c 4.684,2.212 13.944,5.23 21.15,5.961 -0.689,-4.341 -1.082,-8.932 -0.498,-12.324 0.689,-4.005 -4.407,-4.953 -10.095,-4.814 -7.443,0.638 -14.079,1.801 -14.079,1.801 l -0.942,5.96 c 1.415,1.493 2.903,2.68 4.464,3.416 z"
   id="path127" />
			<path
   style="fill:#f7a491"
   d="m 1355.862,1272.289 c -0.771,0 7.387,34.652 20.013,40.613 12.626,5.961 31.455,2.854 34.988,-6.479 3.908,-10.322 -10.348,-45.673 -28.105,-50.163 -17.757,-4.49 -26.896,16.029 -26.896,16.029 z"
   id="path128" />
			<path
   style="fill:#13375b"
   d="m 1370.473,1240.453 c -10.085,5.816 -14.714,14.443 -16.271,17.977 -4.733,2.246 -10.46,7.104 -13.21,20.195 -3.38,16.095 8.638,28.502 21.38,32.234 12.742,3.732 14.71,12.164 14.71,12.164 l 1.445,-9.074 c 0,0 -2.834,-7.9 -7.097,-11.854 -4.263,-3.953 2.019,-9.716 2.571,-14.416 0.425,-3.619 -2.24,-10.646 -1.662,-16.586 0,0 7.08,-10.729 14.06,-13.381 11.897,-4.52 -2.987,-24.723 -15.926,-17.259 z"
   id="path129" />
			<path
   style="fill:#f7a491"
   d="m 1375.839,1293.711 c 1.65,4.002 0.976,7.976 -1.506,8.875 -2.482,0.898 -5.833,-1.616 -7.483,-5.618 -1.65,-4.002 -0.976,-7.976 1.507,-8.874 2.482,-0.9 5.832,1.615 7.482,5.617 z"
   id="path130" />
		</g>
		<path
   style="fill:#f8a492"
   d="m 1422.869,1448.684 73.49,-11.981 c 0,0 -8.362,-21.051 -11.35,-21.051 -2.988,0 -55.568,22.954 -55.568,22.954 l -4.183,8.398 z"
   id="path131" />
		<path
   style="fill:#184655"
   d="m 1385.227,1499.07 c 0,0 -7.331,35.441 -4.344,62.315 2.987,26.873 3.223,122.336 3.223,122.336 l -11.401,152.74 27.05,0.589 c 0,0 32.077,-152.666 31.479,-148.747 -0.598,3.919 10.755,-107.493 10.755,-107.493 l -38.24,-85.099 z"
   id="path132" />
		<path
   style="fill:#13375b"
   d="m 1392.396,1497.391 c 0,0 -4.78,31.912 1.195,45.909 5.975,13.996 51.248,151.327 51.846,162.524 0.598,11.197 15.653,134.96 15.653,134.96 l 31.454,-0.884 6.805,-137.601 -14.248,-172.941 -13.834,-43.725 z"
   id="path133" />
		<path
   style="fill:#f7a491"
   d="m 1374.542,1339.084 c 0,0 7.756,5.09 14.991,4.5 7.234,-0.589 17.463,-7.265 17.463,-7.265 l -1.422,-4.819 c 0,0 -18.715,-2.726 -19.188,-2.431 -0.471,0.294 -11.844,10.015 -11.844,10.015 z"
   id="path134" />
		<path
   style="fill:#f8a492"
   d="m 1457.212,1414.613 c 0,0 27.798,26.232 40.346,21.753 12.548,-4.479 17.739,-19.788 -12.876,-42.188 -27.401,-20.046 -27.47,20.435 -27.47,20.435 z"
   id="path135" />
		<path
   style="fill:#355389"
   d="m 1476.047,1447.004 c -4.129,-22.466 -34.058,-92.377 -36.447,-105.254 -1.162,-6.263 -17.306,-6.4 -32.683,-5.583 -16.241,0.863 -32.375,2.917 -32.375,2.917 0,0 -14.378,2.361 -20.704,8.289 -6.326,5.928 -8.006,22.32 1.087,53.44 7.179,24.564 16.078,38.053 20.482,55.946 0.892,6.002 1.656,11.924 2.668,18.842 1.619,26.755 -0.02,62.1 -0.02,62.1 0,0 78.274,16.236 107.552,-8.398 0,0 -5.329,-59.282 -9.56,-82.299 z"
   id="path136" />
		<path
   style="fill:#466eb6"
   d="m 1496.005,1398.697 c 0,0 -30.713,25.353 -32.505,25.353 -1.154,0 -43.829,-31.393 -53.68,-57.183 -5.445,-14.258 5.977,-30.209 19.023,-30.156 9.043,0.037 13.064,2.367 30.989,17.483 17.925,15.116 36.173,44.503 36.173,44.503 z"
   id="path137" />
	</g>
	<path
   style="fill:#13375b"
   d="m 955.719,267.034 c 5.033,-12.112 10.152,-24.249 23.211,-30.383 10.568,-4.964 21.608,-3.095 30.999,3.966 26.607,20.008 3.423,42.052 33.71,79.992 9.411,11.789 20.802,21.308 26.44,35.123 7.893,19.337 -1.508,28.624 -16.575,37.884 -72.091,44.312 -109.88,-46.669 -108.523,-67.482 1.01,-15.484 7.498,-51.303 10.738,-59.1 z"
   id="path138" />
	<path
   style="fill:#f7a491"
   d="m 880.903,502.85 c 3.04,-0.481 10.421,-5.768 13.026,-6.249 2.02,-0.373 6.387,-1.034 8.248,-1.313 2.279,-8.514 13.859,-54.93 15.156,-68.536 1.405,-14.74 11.828,-78.509 11.828,-78.509 l 26.991,4.906 c 0,0 -11.209,49.056 -14.309,72.843 -2.662,20.431 -25.079,66.368 -27.928,71.215 -0.004,0.117 -0.005,0.23 -0.013,0.354 -0.434,7.21 -3.908,4.807 -3.908,4.807 l -5.645,1.442 c 0,0 -19.974,1.923 -21.276,2.404 -1.301,0.481 -5.209,-2.884 -2.17,-3.364 z"
   id="path139" />
	<path
   style="fill:#6a97ce"
   d="m 952.697,310.966 c -19.081,6.469 -29.93,58.342 -29.93,58.342 0,0 29.935,8.357 37.605,3.974 0,0 8.707,-38.589 11.826,-37.241 z"
   id="path140" />
	<path
   style="fill:#f7a491"
   d="m 805.102,592.471 c -5.839,15.398 -8.867,30.229 -9.141,32.023 -0.131,0.862 1.087,5.048 0.974,5.944 -11.719,15.986 -28.563,19.483 -43,20.502 7.358,-7.183 18.163,-13.99 18.682,-16.265 0.827,-3.622 5.271,-19.747 7.457,-42.094 8.981,4.155 15.074,0.862 25.028,-0.11 z"
   id="path141" />
	<path
   style="fill:#256653"
   d="m 971.16,420.212 25.787,72.625 c 0,0 -41.438,7.8 -56.93,10.641 -15.491,2.841 -102.047,6.622 -104.24,8.159 -1.628,1.141 -19.508,58.97 -27.495,90.858 -9.061,1.994 -24.571,-0.401 -32.822,-3.245 4.458,-45.625 20.56,-117.908 25.715,-125.777 8.398,-12.817 169.985,-53.261 169.985,-53.261 z"
   id="path142" />
	<path
   style="fill:#f7a491"
   d="m 870.426,624.307 c -2.85,16.219 -3.046,31.355 -2.978,33.169 0.033,0.872 2.014,4.754 2.07,5.656 -8.516,17.899 -24.405,24.49 -38.396,28.197 5.882,-8.435 15.22,-17.145 15.304,-19.477 0.133,-3.713 1.477,-20.385 -0.563,-42.745 9.599,2.396 14.968,-1.98 24.563,-4.8 z"
   id="path143" />
	<path
   style="fill:#327f6b"
   d="m 1001.264,423.982 10.001,17.083 c 15.228,26.008 3.555,59.469 -24.542,70.37 -0.152,0.059 -0.301,0.117 -0.448,0.174 -14.685,5.693 -98.998,25.627 -100.865,27.548 -1.385,1.425 -8.112,61.581 -9.982,94.4 -8.527,3.656 -24.211,4.211 -32.849,2.963 -4.171,-45.652 -1.899,-119.672 1.69,-128.368 5.848,-14.163 156.995,-84.17 156.995,-84.17 z"
   id="path144" />
	<path
   style="fill:#13375b"
   d="m 866.156,657.981 c 2.245,-2.48 10.486,11.165 12.545,14.077 2.316,3.275 1.657,5.743 1.38,6.255 -0.731,1.351 -44.191,26.919 -54.79,28.74 -1.001,0.172 -2.736,-0.46 -3.172,-0.847 -4.143,-3.668 14.924,-30.741 23.486,-34.299 5.533,-2.3 10.452,-2.772 20.551,-13.926 z"
   id="path145" />
	<path
   style="fill:#13375b"
   d="m 794.575,624.985 c 2.67,-2.015 8.208,12.933 9.685,16.179 1.662,3.651 0.552,5.952 0.184,6.403 -0.972,1.19 -48.453,18.162 -59.205,17.964 -1.016,-0.019 -2.601,-0.965 -2.958,-1.427 -3.382,-4.378 20.42,-27.4 29.497,-29.291 5.866,-1.222 10.787,-0.764 22.797,-9.828 z"
   id="path146" />
	<path
   style="fill:#9bc1f9"
   d="m 970.792,310.817 v 0 0 c -0.494,0.003 -1.201,-0.17 -1.925,-0.397 -3.544,-0.634 -11.291,-1.562 -17.319,0.982 -7.332,3.093 -18.694,31.996 -18.018,61.663 0.272,4.535 0.547,8.596 0.781,11.427 1.851,22.41 8.28,64.461 8.627,64.685 8.746,5.629 61.516,-16.195 65.143,-20.989 3.626,-4.794 5.765,-63.043 7.529,-65.947 l 3.466,-50.658 c -6.119,-1.827 -38.902,-0.833 -48.284,-0.766 z"
   id="path147" />
	<path
   style="fill:#f7a491"
   d="m 992.178,292.162 c 0,0 -3.397,17.574 -2.718,24.506 0.68,6.932 -2.591,29.273 -17.264,29.347 -14.673,0.074 -2.786,-28.405 -1.404,-35.198 1.382,-6.793 1.709,-27.821 1.709,-27.821 z"
   id="path148" />
	<path
   style="fill:#f47458"
   d="m 972.198,293.546 c 0.229,-5.752 0.303,-10.55 0.303,-10.55 l 19.676,9.166 c 0,0 -0.695,3.593 -1.393,8.172 -8.612,1.731 -14.854,-1.458 -18.586,-6.788 z"
   id="path149" />
	<path
   style="fill:#f7a491"
   d="m 999.369,243.66 c 0,0 7.583,4.206 10.354,13.323 2.772,9.117 -0.383,32.642 -19.969,38.318 -19.586,5.676 -28.071,-12.952 -24.037,-27.515 4.034,-14.564 12.809,-33.007 33.652,-24.126 z"
   id="path150" />
	<path
   style="fill:#f7a491"
   d="m 963.268,262.141 c 0.384,3.912 2.542,6.901 4.821,6.678 2.279,-0.224 3.814,-3.576 3.431,-7.487 -0.384,-3.912 -2.542,-6.902 -4.821,-6.678 -2.278,0.223 -3.814,3.575 -3.431,7.487 z"
   id="path151" />
	<path
   style="fill:#13375b"
   d="m 997.073,242.471 c 0,0 3.552,26.243 12.036,30.979 8.484,4.735 4.933,16.377 4.933,16.377 0,0 7.695,-27.032 0.986,-35.714 -6.708,-8.682 -17.955,-11.642 -17.955,-11.642 z"
   id="path152" />
	<path
   style="fill:#f7a491"
   d="m 1004.084,277.217 c -2.301,3.419 -2.292,7.452 0.018,9.007 2.311,1.555 6.05,0.044 8.351,-3.375 2.301,-3.419 2.292,-7.452 -0.019,-9.007 -2.311,-1.555 -6.049,-0.044 -8.35,3.375 z"
   id="path153" />
	<path
   style="fill:#ffffff"
   d="m 975.547,278.677 13.804,3.474 c 0,0 -1.659,5.243 -7.775,3.893 -7.457,-1.646 -6.029,-7.367 -6.029,-7.367 z"
   id="path154" />
	<path
   style="fill:#50bfa5"
   d="m 1044.079,500.661 c 0.663,-0.033 59.509,-2.992 59.509,-2.992 0,0 -24.419,17.548 -24.917,17.548 -0.498,0 -19.446,-7.479 -20.277,-7.479 -0.831,0 -14.315,-7.077 -14.315,-7.077 z"
   id="path155" />
	<path
   style="fill:#f7a491"
   d="m 2235.529,1831.328 c 0,0 1.164,20.643 1.172,20.685 0.428,2.621 2.114,9.096 2.114,11.479 0,8.95 -39.708,-7.598 -30.809,-11.564 0.806,-0.359 5.025,-3.074 5.29,-6.12 0.408,-4.693 1.443,-14.188 1.443,-14.188 z"
   id="path156" />
	<path
   style="fill:#f7cc7f"
   d="m 2207.626,1852.016 c 0,0 9.322,2.738 14.097,3.422 4.775,0.685 11.07,-5.078 14.447,-3.521 3.718,1.713 3.572,17.137 3.572,17.137 0,0 -49.994,4.391 -64.052,-0.151 -5.569,-1.801 12.877,-10.51 31.936,-16.887 z"
   id="path157" />
	<path
   style="fill:#f7a491"
   d="m 2301.654,1830.259 c 0,0 1.165,20.642 1.172,20.685 0.428,2.62 2.115,9.096 2.115,11.478 0,8.95 -39.708,-7.598 -30.809,-11.563 0.805,-0.359 6.275,-5.102 6.541,-8.148 0.408,-4.693 0.192,-12.161 0.192,-12.161 z"
   id="path158" />
	<path
   style="fill:#f7cc7f"
   d="m 2274.23,1850.772 c 0,0 9.322,2.737 14.098,3.422 4.774,0.685 11.069,-5.079 14.446,-3.522 3.718,1.714 3.866,17.137 3.866,17.137 0,0 -49.638,2.039 -64.346,-0.151 -5.786,-0.862 12.878,-10.51 31.936,-16.886 z"
   id="path159" />
	<path
   style="fill:#355389"
   d="m 2289.877,1502.402 c 0,0 6.729,34.82 3.986,61.223 -2.742,26.402 -2.957,120.191 -2.957,120.191 l 12.649,150.013 -27.016,0.63 c 0,0 -29.444,-149.99 -28.896,-146.141 0.549,3.851 -9.872,-105.609 -9.872,-105.609 l 35.102,-83.607 z"
   id="path160" />
	<path
   style="fill:#466eb6"
   d="m 2280.463,1479.915 c 0,0 30.485,32.11 19.146,67.185 -4.555,14.089 -47.043,148.676 -47.591,159.677 -0.549,11.001 -14.369,132.595 -14.369,132.595 l -28.873,-0.869 -6.246,-135.188 8.252,-182.149 17.525,-30.72 z"
   id="path161" />
	<path
   style="fill:#f47458"
   d="m 2095.373,1375.4 c 9.982,-11.138 31.711,-26.987 31.711,-26.987 0,0 12.943,-11.056 18.221,-12.875 7.767,-2.678 21.069,-9.821 40.311,19.339 13.77,20.868 100.654,128.92 114.917,132.558 l -93.138,44.559 c -2.551,-21.284 -48.585,-61.488 -55.209,-68.99 -14.806,-16.769 -66.263,-77.059 -56.813,-87.604 z"
   id="path162" />
	<path
   style="fill:#f7a491"
   d="m 2099.716,1330.128 29.014,16.985 c 0,0 0.816,24.766 -8.669,31.198 -7.958,5.397 -14.015,-7.557 -14.015,-7.557 0,0 -10.789,-14.95 -18.983,-19.607 -8.196,-4.657 12.653,-21.019 12.653,-21.019 z"
   id="path163" />
	<path
   style="fill:#f47458"
   d="m 2104.584,1341.028 c -1.092,5.167 -3.617,12.637 -7.53,18.79 -3.196,-3.458 -6.789,-6.852 -9.991,-8.671 -3.782,-2.149 -1.375,-6.791 2.311,-11.167 5.205,-5.42 10.343,-9.853 10.343,-9.853 l 5.575,3.265 c 0.359,2.116 -0.345,5.917 -0.708,7.636 z"
   id="path164" />
	<path
   style="fill:#f7a491"
   d="m 2084.604,1287.561 c 0.487,-0.604 24.337,29.085 21.396,43.01 -2.94,13.926 -17.357,26.633 -27.379,23.139 -11.084,-3.864 -31.693,-38.814 -24.302,-55.784 7.391,-16.97 30.285,-10.365 30.285,-10.365 z"
   id="path165" />
	<path
   style="fill:#13375b"
   d="m 2058.49,1278.196 c 10.396,-5.783 27.356,-7.443 40.027,-0.809 15.58,8.157 19.129,28.682 14.252,41.2 -4.878,12.52 0.707,19.597 0.707,19.597 l -8.265,-4.827 c 0,0 -4.827,-7.535 -5.458,-13.54 -0.63,-6.006 -9.391,-4.942 -13.668,-7.666 -3.293,-2.097 -7.496,-8.912 -12.824,-12.448 0,0 -13.416,-1.646 -20.014,2.057 -11.247,6.311 -9.648,-15.28 5.243,-23.564 z"
   id="path166" />
	<path
   style="fill:#f7a491"
   d="m 2092.789,1317.155 c -0.076,4.454 2.028,8.1 4.702,8.144 2.674,0.044 4.903,-3.531 4.98,-7.984 0.077,-4.454 -2.028,-8.1 -4.702,-8.144 -2.674,-0.044 -4.903,3.53 -4.98,7.984 z"
   id="path167" />
	<path
   style="fill:#ffffff"
   d="m 2068.362,1340.795 12.626,-9.441 c 0,0 3.338,5.102 -2.093,9.417 -6.622,5.261 -10.533,0.024 -10.533,0.024 z"
   id="path168" />
	<path
   style="fill:#f8a492"
   d="m 2036.649,1528.607 c 3.164,-4.619 4.542,-11.289 8.916,-16.375 1.469,-1.709 3.806,-3.634 6.468,-5.553 21.037,-12.308 75.837,-44.035 77.97,-46.498 2.527,-2.918 39.931,-65.061 39.931,-65.061 l -33.593,-7.611 -32.828,57.969 c -2.741,2.176 -54.853,40.689 -54.853,40.689 0,0 -10.361,8.097 -16.025,11.886 -2.862,1.67 -5.637,2.751 -8.066,3.596 -3.057,1.063 -8.883,3.966 -10.061,5.002 -1.368,1.205 -4.107,3.78 -5.735,5.353 -1.628,1.571 -3.604,3.348 -4.366,4.282 -0.463,0.569 -1.904,1.354 -2.961,1.882 -1.575,0.785 -1.37,3.116 0.322,3.596 1.596,0.451 3.751,-0.549 5.087,-1.178 3.771,-1.772 8.381,-6.559 8.625,-5.974 0.244,0.585 -4.436,10.841 -4.896,12.048 -0.459,1.207 -5.834,13.156 -6.109,15.821 -0.275,2.664 1.33,3.279 2.523,2.305 1.028,-0.838 9.671,-16.794 9.671,-16.794 0,0 1.106,-2.033 1.537,-0.87 0.43,1.163 -7.389,15.666 -8.152,18.046 -0.764,2.381 -0.155,4.333 2.046,3.498 2.676,-1.015 10.068,-17.01 10.068,-17.01 0,0 0.962,-1.989 1.619,-1.297 0.657,0.693 -6.2,12.922 -6.277,14.33 -0.076,1.409 1.195,2.798 3.046,1.621 2.179,-1.387 8.656,-15.723 8.656,-15.723 0,0 0.8,-0.949 1.051,-0.282 0.252,0.666 -4.852,11.51 -4.471,13.094 0.32,1.331 1.517,1.064 1.517,1.064 2.67,-0.01 6.177,-11.236 9.34,-15.856 z"
   id="path169" />
	<path
   style="fill:#355389"
   d="m 2160.734,1427.946 c 0,0 -10.939,-3.48 -17.957,-6.693 -4.699,-2.151 -25.199,-12.353 -25.199,-12.353 0,0 8.838,-37.281 14.813,-50.686 21.926,-49.195 46.843,-15.268 50.224,-7.359 7.561,17.69 -21.881,77.091 -21.881,77.091 z"
   id="path170" />
	<path
   style="fill:#ffffff"
   d="m 1396.612,1299.127 10.41,-7.784 c 0,0 2.753,4.206 -1.726,7.765 -5.459,4.337 -8.684,0.019 -8.684,0.019 z"
   id="path171" />
	<path
   style="fill:#184655"
   d="M 2618.76,1867.95 H 200.07 c -3.024,0 -5.475,3.128 -5.475,6.987 v 0 c 0,3.858 2.451,6.987 5.475,6.987 h 2418.69 c 3.023,0 5.475,-3.129 5.475,-6.987 v 0 c 0,-3.859 -2.452,-6.987 -5.475,-6.987 z"
   id="path172" />
	<path
   style="fill:#f7a491"
   d="m 1104.939,497.612 c -0.246,-0.628 -0.797,-0.641 -1.359,-0.658 -5.463,-0.167 -10.919,-0.412 -16.335,-1.222 -0.904,-0.135 -1.794,-0.338 -2.625,-0.67 -1.507,-0.602 -2.995,-0.587 -4.516,-0.166 -0.824,0.228 -1.66,0.271 -2.51,0.267 -2.746,-0.012 -10.581,-2.678 -14.606,-3.381 -0.919,-0.161 -1.649,-0.856 -1.877,-1.761 -3.96,-15.66 -12.453,-50.795 -13.555,-62.349 -1.408,-14.775 -11.611,-81.389 -11.611,-81.389 l -27.299,7.613 c 0,0 11.236,49.171 14.343,73.015 2.398,18.411 20.799,57.479 26.566,68.713 2.818,8.362 9.14,8.594 10.609,8.773 0.84,0.103 1.612,0.515 2.163,1.158 0.997,1.161 2.138,2.172 3.443,2.996 0.968,0.611 1.714,1.407 2.352,2.338 1.16,1.694 2.196,3.462 3.223,5.238 0.681,1.177 1.393,1.549 2.403,1.272 1.083,-0.297 1.6,-1.098 1.579,-2.418 -0.031,-1.95 -0.653,-3.714 -1.632,-5.377 -0.917,-1.558 -0.85,-2.464 0.218,-3.898 0.614,-0.824 1.246,-1.624 2.051,-2.278 0.819,-0.667 1.68,-1.172 2.792,-1.017 1.962,0.49 3.941,0.887 5.953,1.109 l 1.652,0.337 c 0.058,0.009 0.901,0.191 0.901,0.191 0.139,0.036 3.044,0.354 4.038,0.355 0.799,10e-4 2.093,0.054 3.194,0.107 0.996,0.048 3.103,-0.472 3.175,-0.474 0.97,-0.021 1.827,-0.372 2.55,-1.022 0.296,-0.266 0.581,-0.564 0.431,-1.016 -0.139,-0.415 -0.464,-0.591 -0.887,-0.668 -0.656,-0.118 -4.046,-0.53 -4.008,-0.674 1.007,0 4.16,-0.074 5.166,-0.101 1.356,-0.036 2.532,-0.522 3.467,-1.525 0.37,-0.395 0.798,-0.787 0.551,-1.418 z"
   id="path173" />
	<path
   style="fill:#9bc1f9"
   d="m 1019.408,311.475 c 13.473,-2.45 24.589,57.833 24.589,57.833 0,0 -29.936,8.357 -37.605,3.974 0,0 -8.707,-38.589 -11.826,-37.241 z"
   id="path174" />
	<path
   style="fill:#f7a491"
   d="m 693.625,1395.029 c 0.892,-2.556 -11.534,-4.619 -12.195,-7.203 -0.662,-2.585 15.689,-2.786 16.274,-5.057 1.079,-4.183 -17.921,-0.881 -17.547,-2.837 0.375,-1.956 19.799,-6.326 17.7,-9.683 -2.099,-3.357 -19.669,6.633 -20.202,4.355 -0.532,-2.278 17.175,-7.819 16.858,-12.813 -0.169,-2.669 -29.062,13.309 -32.413,11.857 -3.351,-1.45 3.604,-13.994 0.937,-15.855 -2.668,-1.861 -10.325,25.494 -12.166,26.406 -1.835,0.91 -40.872,23.189 -54.761,26.731 -1.687,-4.652 -5.333,-10.927 -6.82,-15.325 -7.793,5.546 -13.579,8.329 -21.622,13.385 5.827,14.603 14.12,30.591 18.179,32.425 12.36,5.585 60.165,-34.063 69.706,-40.848 9.551,-6.791 15.016,-4.59 21.474,-6.734 6.458,-2.144 15.706,3.751 16.598,1.196 z"
   id="path175" />
	<path
   style="fill:#f7cc7f"
   d="m 566,1416 c 0,0 -10.7,-47.254 -8.844,-60.961 1.855,-13.707 18.148,-26.483 29.438,-21.744 C 597.883,1338.035 603,1404 603,1404 Z"
   id="path176" />
</g></g>
</svg>
